# xmcd
#
# Track frame offsets: 
#        150
#        13242
#        23216
#        30071
#        37083
#        53189
#        64851
#        76957
#        89650
#        99593
#        108995
#        123433
#        134364
#        146452
#        157905
#        168030
#
# Disc length: 2376 seconds
#
# Revision: 0
# Processed by: cddbd v1.5.2PL0 Copyright (c) Steve Scherf et al.
# Submitted via: ExactAudioCopy v1.0b3
#
DISCID=c9094610
DTITLE=Omar Blondahl (Sagebrush Sam) - 16 Folk Songs of Newfoundland
DYEAR=1900
DGENRE=
TTITLE0=Squid Jiggin' Ground
TTITLE1=We'll Rant and We'll Roar
TTITLE2=Lukey's Boat
TTITLE3=Jack Was Every Inch a Sailor
TTITLE4=Tickle Cove Pond
TTITLE5=John Hinks
TTITLE6=Moonshine Can
TTITLE7=Star of Logy Bay
TTITLE8=When Paddy McGinty Plays the Harp
TTITLE9=Bonavist Harbour
TTITLE10=Trinity Cake
TTITLE11=She's Like the Swallow
TTITLE12=Huntingdon Shore
TTITLE13=My Little Blue Hen
TTITLE14=Catch of the Season
TTITLE15=Roving Newfoundlander
EXTD=
EXTT0=
EXTT1=
EXTT2=
EXTT3=
EXTT4=
EXTT5=
EXTT6=
EXTT7=
EXTT8=
EXTT9=
EXTT10=
EXTT11=
EXTT12=
EXTT13=
EXTT14=
EXTT15=
PLAYORDER=
